<svg width="536" height="118" viewBox="0 0 536 118" fill="none" xmlns="http://www.w3.org/2000/svg">
<path d="M183.015 92.9135C175.85 92.9135 169.691 91.4517 164.54 88.5281C159.417 85.575 155.465 81.4701 152.682 76.2136C149.928 70.9275 148.551 64.7998 148.551 57.8305C148.551 50.8316 149.928 44.7039 152.682 39.4473C155.465 34.1612 159.417 30.0564 164.54 27.1328C169.691 24.1797 175.85 22.7032 183.015 22.7032C190.18 22.7032 196.324 24.1797 201.446 27.1328C206.598 30.0564 210.55 34.1612 213.304 39.4473C216.087 44.7039 217.479 50.8316 217.479 57.8305C217.479 64.7998 216.087 70.9275 213.304 76.2136C210.55 81.4701 206.598 85.575 201.446 88.5281C196.324 91.4517 190.18 92.9135 183.015 92.9135ZM183.148 76.568C185.754 76.568 187.959 75.7706 189.766 74.176C191.572 72.5813 192.948 70.3664 193.896 67.5314C194.873 64.6965 195.361 61.4185 195.361 57.6976C195.361 53.9176 194.873 50.6101 193.896 47.7751C192.948 44.9401 191.572 42.7253 189.766 41.1306C187.959 39.5359 185.754 38.7386 183.148 38.7386C180.454 38.7386 178.174 39.5359 176.309 41.1306C174.473 42.7253 173.067 44.9401 172.09 47.7751C171.142 50.6101 170.668 53.9176 170.668 57.6976C170.668 61.4185 171.142 64.6965 172.09 67.5314C173.067 70.3664 174.473 72.5813 176.309 74.176C178.174 75.7706 180.454 76.568 183.148 76.568Z" fill="#4285F4"/>
<path d="M501.536 92.9135C494.371 92.9135 488.213 91.4517 483.061 88.5281C477.939 85.575 473.986 81.4701 471.203 76.2136C468.45 70.9275 467.073 64.7998 467.073 57.8305C467.073 50.8316 468.45 44.7039 471.203 39.4473C473.986 34.1612 477.939 30.0564 483.061 27.1328C488.213 24.1797 494.371 22.7032 501.536 22.7032C508.702 22.7032 514.845 24.1797 519.967 27.1328C525.119 30.0564 529.072 34.1612 531.825 39.4473C534.608 44.7039 536 50.8316 536 57.8305C536 64.7998 534.608 70.9275 531.825 76.2136C529.072 81.4701 525.119 85.575 519.967 88.5281C514.845 91.4517 508.702 92.9135 501.536 92.9135ZM501.67 76.568C504.275 76.568 506.481 75.7706 508.287 74.176C510.093 72.5813 511.47 70.3664 512.417 67.5314C513.394 64.6965 513.883 61.4185 513.883 57.6976C513.883 53.9176 513.394 50.6101 512.417 47.7751C511.47 44.9401 510.093 42.7253 508.287 41.1306C506.481 39.5359 504.275 38.7386 501.67 38.7386C498.975 38.7386 496.696 39.5359 494.83 41.1306C492.995 42.7253 491.588 44.9401 490.611 47.7751C489.664 50.6101 489.19 53.9176 489.19 57.6976C489.19 61.4185 489.664 64.6965 490.611 67.5314C491.588 70.3664 492.995 72.5813 494.83 74.176C496.696 75.7706 498.975 76.568 501.67 76.568Z" fill="#34A853"/>
<path d="M389.574 117.144V23.5891H411.07V35.2391H411.736C412.624 33.172 413.882 31.1786 415.511 29.2591C417.169 27.3396 419.271 25.7744 421.817 24.5636C424.393 23.3233 427.472 22.7032 431.055 22.7032C435.792 22.7032 440.219 23.9435 444.334 26.4241C448.479 28.9047 451.825 32.729 454.371 37.8969C456.917 43.0649 458.191 49.6503 458.191 57.6533C458.191 65.3609 456.962 71.8135 454.504 77.0109C452.076 82.2084 448.79 86.1065 444.645 88.7053C440.529 91.304 435.955 92.6034 430.922 92.6034C427.487 92.6034 424.512 92.0423 421.995 90.9201C419.478 89.7979 417.361 88.3214 415.644 86.4904C413.956 84.6595 412.654 82.6957 411.736 80.599H411.292V117.144H389.574ZM410.848 57.609C410.848 61.2708 411.336 64.4602 412.313 67.1771C413.32 69.8939 414.756 72.0054 416.621 73.5115C418.516 74.9881 420.781 75.7263 423.416 75.7263C426.081 75.7263 428.346 74.9881 430.211 73.5115C432.076 72.0054 433.483 69.8939 434.43 67.1771C435.407 64.4602 435.896 61.2708 435.896 57.609C435.896 53.9471 435.407 50.7725 434.43 48.0852C433.483 45.3979 432.076 43.3159 430.211 41.8393C428.375 40.3628 426.11 39.6245 423.416 39.6245C420.751 39.6245 418.486 40.348 416.621 41.7951C414.756 43.2421 413.32 45.3093 412.313 47.9966C411.336 50.6839 410.848 53.8881 410.848 57.609Z" fill="#4285F4"/>
<path d="M309.455 91.6289V0.90918H331.173V35.2391H331.617C332.505 33.172 333.763 31.1786 335.392 29.2591C337.05 27.3396 339.152 25.7744 341.698 24.5636C344.274 23.3233 347.353 22.7032 350.936 22.7032C355.673 22.7032 360.1 23.9435 364.215 26.4241C368.36 28.9047 371.706 32.729 374.252 37.8969C376.798 43.0649 378.072 49.6503 378.072 57.6533C378.072 65.3609 376.843 71.8135 374.385 77.0109C371.958 82.2084 368.671 86.1065 364.526 88.7053C360.411 91.304 355.836 92.6034 350.803 92.6034C347.368 92.6034 344.393 92.0423 341.876 90.9201C339.359 89.7979 337.242 88.3214 335.525 86.4904C333.837 84.6595 332.535 82.6957 331.617 80.599H330.951V91.6289H309.455ZM330.729 57.609C330.729 61.2708 331.217 64.4602 332.194 67.1771C333.201 69.8939 334.637 72.0054 336.502 73.5115C338.397 74.9881 340.662 75.7263 343.297 75.7263C345.962 75.7263 348.227 74.9881 350.092 73.5115C351.957 72.0054 353.364 69.8939 354.311 67.1771C355.288 64.4602 355.777 61.2708 355.777 57.609C355.777 53.9471 355.288 50.7725 354.311 48.0852C353.364 45.3979 351.957 43.3159 350.092 41.8393C348.256 40.3628 345.991 39.6245 343.297 39.6245C340.632 39.6245 338.367 40.348 336.502 41.7951C334.637 43.2421 333.201 45.3093 332.194 47.9966C331.217 50.6839 330.729 53.8881 330.729 57.609Z" fill="#FBBE0D"/>
<path d="M229.336 117.144V23.5891H250.832V35.2391H251.498C252.386 33.172 253.645 31.1786 255.273 29.2591C256.931 27.3396 259.033 25.7744 261.579 24.5636C264.155 23.3233 267.235 22.7032 270.817 22.7032C275.554 22.7032 279.981 23.9435 284.096 26.4241C288.241 28.9047 291.587 32.729 294.133 37.8969C296.68 43.0649 297.953 49.6503 297.953 57.6533C297.953 65.3609 296.724 71.8135 294.267 77.0109C291.839 82.2084 288.552 86.1065 284.407 88.7053C280.292 91.304 275.717 92.6034 270.684 92.6034C267.249 92.6034 264.274 92.0423 261.757 90.9201C259.24 89.7979 257.123 88.3214 255.406 86.4904C253.719 84.6595 252.416 82.6957 251.498 80.599H251.054V117.144H229.336ZM250.61 57.609C250.61 61.2708 251.098 64.4602 252.075 67.1771C253.082 69.8939 254.518 72.0054 256.383 73.5115C258.278 74.9881 260.543 75.7263 263.178 75.7263C265.843 75.7263 268.108 74.9881 269.973 73.5115C271.839 72.0054 273.245 69.8939 274.192 67.1771C275.169 64.4602 275.658 61.2708 275.658 57.609C275.658 53.9471 275.169 50.7725 274.192 48.0852C273.245 45.3979 271.839 43.3159 269.973 41.8393C268.138 40.3628 265.873 39.6245 263.178 39.6245C260.514 39.6245 258.249 40.348 256.383 41.7951C254.518 43.2421 253.082 45.3093 252.075 47.9966C251.098 50.6839 250.61 53.8881 250.61 57.609Z" fill="#EA4335"/>
<path d="M54.6502 63.1826V54.7291H58.1727C58.8052 54.7291 59.3345 54.8186 59.7607 54.9974C60.1897 55.1763 60.5114 55.4267 60.7259 55.7487C60.9432 56.0706 61.0518 56.4435 61.0518 56.8673C61.0518 57.1892 60.9844 57.4768 60.8497 57.7299C60.7149 57.9803 60.5293 58.1881 60.2928 58.3532C60.0564 58.5183 59.7827 58.6339 59.472 58.6999V58.7825C59.813 58.799 60.1279 58.8912 60.4166 59.059C60.7081 59.2269 60.9418 59.4608 61.1178 59.7607C61.2938 60.0579 61.3818 60.4102 61.3818 60.8174C61.3818 61.2715 61.2663 61.6773 61.0353 62.0351C60.8043 62.39 60.4702 62.6707 60.033 62.8771C59.5958 63.0807 59.065 63.1826 58.4408 63.1826H54.6502ZM56.6919 61.5356H57.9541C58.3968 61.5356 58.7227 61.4517 58.9317 61.2838C59.1434 61.116 59.2493 60.8821 59.2493 60.5821C59.2493 60.3647 59.1984 60.1776 59.0967 60.0208C58.9949 59.8612 58.8506 59.7387 58.6636 59.6534C58.4766 59.5654 58.2525 59.5213 57.9912 59.5213H56.6919V61.5356ZM56.6919 58.2046H57.8221C58.0449 58.2046 58.2428 58.1675 58.4161 58.0932C58.5893 58.0189 58.7241 57.9115 58.8203 57.7712C58.9193 57.6309 58.9688 57.4616 58.9688 57.2635C58.9688 56.9801 58.8684 56.7572 58.6677 56.5948C58.467 56.4325 58.1961 56.3513 57.8551 56.3513H56.6919V58.2046Z" fill="#FBBE0D"/>
<path d="M51.8704 1.2378C48.1459 1.66961 44.4894 2.4196 43.8308 2.91959C41.7641 4.41957 41.7414 7.19226 43.8081 8.57861C44.7392 9.21496 45.6477 9.19224 50.0536 8.41952C53.6646 7.78316 58.5929 7.57862 62.431 7.91953C80.5543 9.53314 96.2929 20.3739 104.219 36.6691C106.626 41.6009 107.989 45.9645 108.92 51.6917C109.511 55.4643 109.465 63.2142 108.807 67.0323C106.876 78.2367 102.084 87.5775 94.2262 95.4638C92.6592 97.0319 91.1148 98.4637 90.8196 98.6228C90.2972 98.8955 90.2972 98.8955 90.4562 98.0319C90.865 95.691 90.865 94.8274 90.4789 93.9865C89.6386 92.2366 87.5492 91.5547 85.8913 92.4865C85.3917 92.7593 84.8012 93.282 84.5741 93.6683C84.1199 94.4411 82.1895 104.895 82.1895 106.555C82.1895 107.827 82.8027 108.918 83.7792 109.418C84.5741 109.827 95.2709 111.804 96.6563 111.804C98.3823 111.804 99.9039 110.259 99.9039 108.509C99.9039 106.486 98.4277 105.168 95.816 104.873C95.0665 104.782 94.4533 104.645 94.4533 104.555C94.4533 104.486 95.0211 103.964 95.7024 103.418C97.6556 101.85 102.334 96.9183 104.264 94.3956C120.548 73.0095 120.185 43.4645 103.379 22.6011C94.09 11.0786 81.2356 3.76049 66.2918 1.46507C62.9533 0.965076 55.3225 0.828714 51.8704 1.2378Z" fill="url(#paint0_linear_117_129)"/>
<path d="M17.9631 6.80585C15.7374 8.16947 15.8056 11.4194 18.0994 12.624C18.6217 12.8967 19.6437 13.1921 20.4159 13.283C21.1653 13.3739 21.7785 13.533 21.7785 13.6239C21.7785 13.7148 21.506 13.9648 21.1881 14.1921C20.0525 14.9421 15.1243 19.8966 13.2165 22.192C7.87948 28.6692 3.81423 36.7145 1.79296 44.7599C-0.478124 53.8279 -0.591678 62.9869 1.4523 72.1686C4.67725 86.532 13.7843 99.5318 26.4343 107.85C36.2454 114.304 48.2594 117.645 60.0464 117.191C65.2926 116.986 71.311 116.032 72.4011 115.236C74.4678 113.759 74.4905 110.964 72.4238 109.577C71.4699 108.941 70.5842 108.964 66.1783 109.759C62.2948 110.464 54.6412 110.554 50.7349 109.918C45.0118 108.986 40.7421 107.645 35.723 105.214C25.3441 100.191 17.1228 91.9638 11.9902 81.4639C2.38345 61.8051 6.35785 38.3963 22.0056 22.692C23.5727 21.1238 25.117 19.692 25.4123 19.5329C25.9346 19.2602 25.9346 19.2602 25.7757 20.1238C25.3669 22.4647 25.3669 23.3283 25.7529 24.1692C26.8658 26.5101 30.2497 26.7601 31.5669 24.6011C32.0893 23.7602 34.0424 13.4876 34.0424 11.6012C34.0424 10.3285 33.4292 9.23764 32.4299 8.71492C31.6351 8.30583 21.0745 6.35131 19.621 6.35131C19.1214 6.35131 18.3946 6.55585 17.9631 6.80585Z" fill="url(#paint1_linear_117_129)"/>
<path d="M50.8939 19.6921C49.8719 20.1921 49.6448 20.6012 48.0096 24.6238L46.6015 28.0556L43.7854 29.4647C42.241 30.2374 40.1062 31.5101 39.0615 32.2601L37.1765 33.6465L33.2475 33.0783C28.9098 32.4419 28.183 32.5101 27.1837 33.5555C26.8431 33.9192 25.2306 36.5328 23.5727 39.3964C20.3705 44.9418 20.0298 45.8736 20.7111 47.169C20.8928 47.5326 22.0965 49.1462 23.3456 50.7371L25.6394 53.6689L25.4577 54.9416C25.2533 56.6007 25.2533 61.5552 25.4577 63.2142L25.6394 64.4869L23.3456 67.4187C22.0965 69.0096 20.8928 70.6232 20.7111 70.9868C20.0298 72.2823 20.3705 73.2141 23.5727 78.7595C25.2306 81.6231 26.8431 84.2367 27.1837 84.6003C28.183 85.6457 28.9098 85.7139 33.2475 85.0776L37.1765 84.5094L39.0615 85.8957C40.1062 86.6457 42.241 87.9184 43.7854 88.6911L46.6015 90.1002L48.0096 93.5093C49.7583 97.8047 49.7811 97.8501 50.8485 98.3956C51.6661 98.8274 52.1884 98.8501 58.1159 98.8501C64.0435 98.8501 64.5658 98.8274 65.3834 98.3956C66.4508 97.8501 66.4736 97.8047 68.2223 93.5093L69.6304 90.1002L72.4465 88.6911C73.9909 87.9184 76.1257 86.6457 77.1704 85.8957L79.0554 84.5094L82.9844 85.0776C87.3221 85.7139 88.0489 85.6457 89.0482 84.6003C89.3888 84.2367 91.0013 81.6231 92.6592 78.7595C95.8614 73.2141 96.2021 72.2823 95.5208 70.9868C95.3391 70.6232 94.1354 69.0096 92.8863 67.4187L90.5925 64.4869L90.7742 63.2142C90.865 62.487 90.9332 60.6461 90.9332 59.0779C90.9332 57.5098 90.865 55.6689 90.7742 54.9416L90.5925 53.6689L92.8863 50.7371C94.1354 49.1462 95.3391 47.5326 95.5208 47.169C96.2021 45.8736 95.8614 44.9418 92.6592 39.3964C91.0013 36.5328 89.3888 33.9192 89.0482 33.5555C88.0489 32.5101 87.3221 32.4419 82.9844 33.0783L79.0554 33.6465L77.1704 32.2601C76.1257 31.5101 73.9909 30.2374 72.4465 29.4647L69.6304 28.0556L68.2223 24.6466C66.4736 20.3512 66.4508 20.3057 65.3834 19.7603C64.5431 19.3285 64.0435 19.3057 58.0705 19.3057C52.5745 19.3057 51.5298 19.3739 50.8939 19.6921ZM62.7717 29.3511C63.4757 31.1465 64.316 32.8737 64.634 33.2146C64.9746 33.5555 65.9512 34.101 66.8369 34.4419C69.4714 35.4192 71.7425 36.6919 73.9 38.3964C77.0568 40.8736 76.8524 40.8054 81.2356 40.2145C83.2569 39.9191 84.9602 39.7373 85.0056 39.7827C85.0511 39.8282 85.8005 41.1463 86.709 42.6918C87.7082 44.4418 88.2533 45.6008 88.117 45.7599C88.0262 45.8963 87.095 47.0781 86.0503 48.3962C83.3477 51.828 83.4159 51.6689 83.8701 54.9189C84.347 58.2825 84.347 59.8734 83.8701 63.237C83.3932 66.4869 83.325 66.3051 86.232 69.9869L88.2987 72.6005L87.5947 73.8504C85.3236 77.9186 85.0056 78.3958 84.6423 78.3958C84.4379 78.3958 82.8481 78.1913 81.1221 77.9413C79.396 77.6686 77.6473 77.5322 77.2612 77.6004C76.8297 77.6686 75.785 78.3277 74.8766 79.0549C71.856 81.4412 70.0619 82.4867 66.8369 83.7139C65.9512 84.0321 64.9746 84.6003 64.634 84.9412C64.316 85.2821 63.4757 87.0093 62.7717 88.8048L61.4772 92.032H54.7547L53.4602 88.782C52.7562 87.0093 51.9159 85.2821 51.5979 84.9412C51.2573 84.6003 50.2807 84.0321 49.395 83.7139C46.17 82.4867 44.3759 81.4412 41.3553 79.0549C40.4469 78.3277 39.4022 77.6686 38.9707 77.6004C38.5846 77.5322 36.8359 77.6686 35.1098 77.9413C33.3838 78.1913 31.794 78.3958 31.5896 78.3958C31.2263 78.3958 30.9083 77.9186 28.6372 73.8504L27.9332 72.6005L29.9999 69.9869C32.9069 66.3051 32.8387 66.4869 32.3618 63.237C32.1574 61.7597 31.9984 59.8961 31.9984 59.0779C31.9984 58.2597 32.1574 56.3961 32.3618 54.9189C32.816 51.6689 32.8842 51.828 30.1816 48.3962C29.1369 47.0781 28.2057 45.8963 28.1149 45.7599C27.9786 45.6008 28.5237 44.4418 29.5229 42.6918C30.4314 41.1463 31.1808 39.8282 31.2263 39.7827C31.2717 39.7373 32.9523 39.9191 34.9508 40.1918C39.1978 40.8054 39.3113 40.7827 41.5143 39.01C44.285 36.76 46.1927 35.6464 49.395 34.4419C50.2807 34.1237 51.2573 33.5555 51.5979 33.2146C51.9159 32.8737 52.7562 31.1465 53.4602 29.3511L54.7547 26.1238H61.4772L62.7717 29.3511Z" fill="url(#paint2_linear_117_129)"/>
<path d="M55.0954 39.9871C47.51 41.3735 41.8095 46.4189 39.5612 53.7824C39.0388 55.5551 38.9707 56.146 38.9707 59.0778C38.9707 62.0096 39.0388 62.6005 39.5612 64.3732C41.5824 70.9867 46.2155 75.623 52.8243 77.6457C54.5958 78.1684 55.1863 78.2366 58.116 78.2366C61.0457 78.2366 61.6361 78.1684 63.4076 77.6457C70.0165 75.623 74.6495 70.9867 76.6707 64.3732C77.1931 62.6005 77.2612 62.0096 77.2612 59.0778C77.2612 56.146 77.1931 55.5551 76.6707 53.7824C74.1498 45.5098 67.2684 40.1462 58.7973 39.8735C57.3665 39.828 55.6859 39.8735 55.0954 39.9871ZM62.0676 47.237C65.8149 48.5552 68.6765 51.4415 69.971 55.1687C70.6978 57.3278 70.6978 60.8278 69.971 62.9868C68.6765 66.7368 65.7695 69.6458 61.9995 70.9413C59.8647 71.6685 56.3672 71.6685 54.2324 70.9413C50.4851 69.6458 47.5554 66.714 46.2609 62.9868C45.5341 60.8278 45.5341 57.3278 46.2609 55.1687C47.7598 50.8279 51.5071 47.6007 56.072 46.7143C57.2984 46.487 60.7504 46.7825 62.0676 47.237Z" fill="url(#paint3_linear_117_129)"/>
<defs>
<linearGradient id="paint0_linear_117_129" x1="-0.46887" y1="60.1165" x2="116.514" y2="60.1165" gradientUnits="userSpaceOnUse">
<stop stop-color="#407FE7"/>
<stop offset="1" stop-color="#34A853"/>
</linearGradient>
<linearGradient id="paint1_linear_117_129" x1="-0.46887" y1="60.1165" x2="116.514" y2="60.1165" gradientUnits="userSpaceOnUse">
<stop stop-color="#407FE7"/>
<stop offset="1" stop-color="#34A853"/>
</linearGradient>
<linearGradient id="paint2_linear_117_129" x1="-0.46887" y1="60.1165" x2="116.514" y2="60.1165" gradientUnits="userSpaceOnUse">
<stop stop-color="#EA4335"/>
<stop offset="1" stop-color="#4285F4"/>
</linearGradient>
<linearGradient id="paint3_linear_117_129" x1="38.8162" y1="58.7155" x2="77.3533" y2="58.7155" gradientUnits="userSpaceOnUse">
<stop stop-color="#FBBE0D"/>
<stop offset="1" stop-color="#FBBE0D"/>
</linearGradient>
</defs>
</svg>
