<svg width="117" height="117" viewBox="0 0 117 117" fill="none" xmlns="http://www.w3.org/2000/svg">
<path d="M54.6502 62.1855V53.7321H58.1727C58.8052 53.7321 59.3345 53.8215 59.7607 54.0004C60.1897 54.1792 60.5115 54.4296 60.7259 54.7516C60.9432 55.0735 61.0518 55.4464 61.0518 55.8702C61.0518 56.1921 60.9844 56.4797 60.8497 56.7329C60.7149 56.9833 60.5293 57.191 60.2928 57.3561C60.0564 57.5212 59.7827 57.6368 59.472 57.7029V57.7854C59.813 57.8019 60.1278 57.8941 60.4166 58.062C60.7081 58.2298 60.9418 58.4637 61.1178 58.7637C61.2938 59.0609 61.3818 59.4131 61.3818 59.8203C61.3818 60.2744 61.2663 60.6803 61.0353 61.038C60.8043 61.393 60.4702 61.6737 60.033 61.88C59.5958 62.0837 59.065 62.1855 58.4408 62.1855H54.6502ZM56.6919 60.5386H57.9541C58.3968 60.5386 58.7227 60.4546 58.9317 60.2868C59.1434 60.1189 59.2493 59.885 59.2493 59.5851C59.2493 59.3677 59.1984 59.1806 59.0967 59.0237C58.9949 58.8641 58.8506 58.7417 58.6636 58.6563C58.4766 58.5683 58.2525 58.5243 57.9912 58.5243H56.6919V60.5386ZM56.6919 57.2075H57.8221C58.0449 57.2075 58.2428 57.1704 58.4161 57.0961C58.5893 57.0218 58.7241 56.9145 58.8203 56.7741C58.9193 56.6338 58.9688 56.4646 58.9688 56.2664C58.9688 55.983 58.8684 55.7601 58.6677 55.5978C58.467 55.4354 58.1961 55.3542 57.8551 55.3542H56.6919V57.2075Z" fill="#FBBE0D"/>
<path d="M51.8704 0.240729C48.1459 0.672541 44.4894 1.42253 43.8308 1.92252C41.7641 3.4225 41.7414 6.19519 43.8081 7.58154C44.7392 8.21789 45.6477 8.19517 50.0536 7.42245C53.6646 6.78609 58.5929 6.58155 62.431 6.92246C80.5543 8.53607 96.2929 19.3768 104.219 35.6721C106.626 40.6038 107.989 44.9674 108.92 50.6946C109.511 54.4673 109.465 62.2171 108.807 66.0353C106.876 77.2397 102.084 86.5805 94.2262 94.4667C92.6592 96.0349 91.1148 97.4667 90.8196 97.6258C90.2972 97.8985 90.2972 97.8985 90.4562 97.0349C90.865 94.694 90.865 93.8304 90.4789 92.9895C89.6386 91.2395 87.5492 90.5577 85.8913 91.4895C85.3917 91.7622 84.8012 92.2849 84.5741 92.6713C84.1199 93.444 82.1895 103.898 82.1895 105.557C82.1895 106.83 82.8027 107.921 83.7792 108.421C84.5741 108.83 95.2709 110.807 96.6563 110.807C98.3823 110.807 99.9039 109.262 99.9039 107.512C99.9039 105.489 98.4277 104.171 95.816 103.876C95.0665 103.785 94.4533 103.648 94.4533 103.557C94.4533 103.489 95.0211 102.967 95.7024 102.421C97.6556 100.853 102.334 95.9212 104.264 93.3985C120.548 72.0125 120.185 42.4674 103.379 21.6041C94.09 10.0815 81.2356 2.76342 66.2918 0.467999C62.9533 -0.0319943 55.3225 -0.168356 51.8704 0.240729Z" fill="url(#paint0_linear_186_98)"/>
<path d="M17.9631 5.80878C15.7374 7.1724 15.8056 10.4224 18.0994 11.6269C18.6217 11.8996 19.6437 12.1951 20.4159 12.286C21.1653 12.3769 21.7785 12.536 21.7785 12.6269C21.7785 12.7178 21.506 12.9678 21.1881 13.195C20.0525 13.945 15.1243 18.8995 13.2165 21.1949C7.87948 27.6721 3.81423 35.7175 1.79296 43.7628C-0.478124 52.8309 -0.591678 61.9898 1.4523 71.1715C4.67725 85.535 13.7843 98.5348 26.4343 106.853C36.2454 113.307 48.2594 116.648 60.0464 116.194C65.2926 115.989 71.311 115.035 72.4011 114.239C74.4678 112.762 74.4905 109.966 72.4238 108.58C71.4699 107.944 70.5842 107.966 66.1783 108.762C62.2948 109.466 54.6412 109.557 50.7349 108.921C45.0118 107.989 40.7421 106.648 35.723 104.217C25.3441 99.1939 17.1228 90.9667 11.9902 80.4669C2.38345 60.808 6.35785 37.3993 22.0056 21.6949C23.5727 20.1268 25.117 18.695 25.4123 18.5359C25.9346 18.2632 25.9346 18.2632 25.7757 19.1268C25.3669 21.4677 25.3669 22.3313 25.7529 23.1722C26.8658 25.513 30.2497 25.763 31.5669 23.604C32.0893 22.7631 34.0424 12.4905 34.0424 10.6042C34.0424 9.33146 33.4292 8.24057 32.4299 7.71785C31.6351 7.30876 21.0745 5.35424 19.621 5.35424C19.1214 5.35424 18.3946 5.55878 17.9631 5.80878Z" fill="url(#paint1_linear_186_98)"/>
<path d="M50.8939 18.695C49.8719 19.195 49.6448 19.6041 48.0096 23.6268L46.6015 27.0586L43.7854 28.4676C42.241 29.2403 40.1062 30.513 39.0615 31.263L37.1765 32.6494L33.2475 32.0812C28.9098 31.4449 28.183 31.513 27.1837 32.5585C26.8431 32.9221 25.2306 35.5357 23.5727 38.3993C20.3705 43.9447 20.0298 44.8765 20.7111 46.1719C20.8928 46.5356 22.0965 48.1492 23.3456 49.7401L25.6394 52.6718L25.4577 53.9445C25.2533 55.6036 25.2533 60.5581 25.4577 62.2172L25.6394 63.4899L23.3456 66.4216C22.0965 68.0125 20.8928 69.6261 20.7111 69.9898C20.0298 71.2852 20.3705 72.217 23.5727 77.7624C25.2306 80.626 26.8431 83.2396 27.1837 83.6032C28.183 84.6487 28.9098 84.7168 33.2475 84.0805L37.1765 83.5123L39.0615 84.8987C40.1062 85.6486 42.241 86.9214 43.7854 87.6941L46.6015 89.1031L48.0096 92.5122C49.7583 96.8076 49.7811 96.853 50.8485 97.3985C51.6661 97.8303 52.1884 97.853 58.1159 97.853C64.0435 97.853 64.5658 97.8303 65.3834 97.3985C66.4508 96.853 66.4736 96.8076 68.2223 92.5122L69.6304 89.1031L72.4465 87.6941C73.9909 86.9214 76.1257 85.6486 77.1704 84.8987L79.0554 83.5123L82.9844 84.0805C87.3221 84.7168 88.0489 84.6487 89.0482 83.6032C89.3888 83.2396 91.0013 80.626 92.6592 77.7624C95.8614 72.217 96.2021 71.2852 95.5208 69.9898C95.3391 69.6261 94.1354 68.0125 92.8863 66.4216L90.5925 63.4899L90.7742 62.2172C90.865 61.4899 90.9332 59.649 90.9332 58.0808C90.9332 56.5127 90.865 54.6718 90.7742 53.9445L90.5925 52.6718L92.8863 49.7401C94.1354 48.1492 95.3391 46.5356 95.5208 46.1719C96.2021 44.8765 95.8614 43.9447 92.6592 38.3993C91.0013 35.5357 89.3888 32.9221 89.0482 32.5585C88.0489 31.513 87.3221 31.4449 82.9844 32.0812L79.0554 32.6494L77.1704 31.263C76.1257 30.513 73.9909 29.2403 72.4465 28.4676L69.6304 27.0586L68.2223 23.6495C66.4736 19.3541 66.4508 19.3087 65.3834 18.7632C64.5431 18.3314 64.0435 18.3087 58.0705 18.3087C52.5745 18.3087 51.5298 18.3769 50.8939 18.695ZM62.7717 28.354C63.4757 30.1494 64.316 31.8767 64.634 32.2176C64.9746 32.5585 65.9512 33.1039 66.8369 33.4448C69.4714 34.4221 71.7425 35.6948 73.9 37.3993C77.0568 39.8766 76.8524 39.8084 81.2356 39.2175C83.2569 38.922 84.9602 38.7402 85.0056 38.7857C85.0511 38.8311 85.8005 40.1493 86.709 41.6947C87.7082 43.4447 88.2533 44.6038 88.117 44.7629C88.0262 44.8992 87.095 46.081 86.0503 47.3992C83.3477 50.8309 83.4159 50.6719 83.8701 53.9218C84.347 57.2854 84.347 58.8763 83.8701 62.2399C83.3932 65.4898 83.325 65.308 86.232 68.9898L88.2987 71.6034L87.5947 72.8534C85.3236 76.9215 85.0056 77.3988 84.6423 77.3988C84.4379 77.3988 82.8481 77.1942 81.1221 76.9442C79.3961 76.6715 77.6473 76.5351 77.2612 76.6033C76.8297 76.6715 75.785 77.3306 74.8766 78.0578C71.856 80.4442 70.0619 81.4896 66.8369 82.7169C65.9512 83.0351 64.9746 83.6032 64.634 83.9441C64.316 84.285 63.4757 86.0123 62.7717 87.8077L61.4772 91.0349H54.7547L53.4602 87.785C52.7562 86.0123 51.9159 84.285 51.5979 83.9441C51.2573 83.6032 50.2807 83.0351 49.395 82.7169C46.17 81.4896 44.3759 80.4442 41.3553 78.0578C40.4469 77.3306 39.4022 76.6715 38.9707 76.6033C38.5846 76.5351 36.8359 76.6715 35.1098 76.9442C33.3838 77.1942 31.794 77.3988 31.5896 77.3988C31.2263 77.3988 30.9083 76.9215 28.6372 72.8534L27.9332 71.6034L29.9999 68.9898C32.9069 65.308 32.8387 65.4898 32.3618 62.2399C32.1574 60.7626 31.9984 58.899 31.9984 58.0808C31.9984 57.2627 32.1574 55.3991 32.3618 53.9218C32.816 50.6719 32.8842 50.8309 30.1816 47.3992C29.1369 46.081 28.2057 44.8992 28.1149 44.7629C27.9786 44.6038 28.5237 43.4447 29.5229 41.6947C30.4314 40.1493 31.1808 38.8311 31.2263 38.7857C31.2717 38.7402 32.9523 38.922 34.9509 39.1947C39.1978 39.8084 39.3113 39.7856 41.5143 38.0129C44.285 35.763 46.1927 34.6494 49.395 33.4448C50.2807 33.1266 51.2573 32.5585 51.5979 32.2176C51.9159 31.8767 52.7562 30.1494 53.4602 28.354L54.7547 25.1268H61.4772L62.7717 28.354Z" fill="url(#paint2_linear_186_98)"/>
<path d="M55.0954 38.9901C47.51 40.3764 41.8095 45.4218 39.5612 52.7853C39.0388 54.558 38.9707 55.1489 38.9707 58.0807C38.9707 61.0125 39.0388 61.6034 39.5612 63.3761C41.5824 69.9896 46.2155 74.6259 52.8243 76.6486C54.5958 77.1714 55.1863 77.2395 58.116 77.2395C61.0457 77.2395 61.6361 77.1714 63.4076 76.6486C70.0165 74.6259 74.6495 69.9896 76.6707 63.3761C77.1931 61.6034 77.2612 61.0125 77.2612 58.0807C77.2612 55.1489 77.1931 54.558 76.6707 52.7853C74.1498 44.5127 67.2684 39.1492 58.7973 38.8764C57.3665 38.831 55.6859 38.8764 55.0954 38.9901ZM62.0676 46.24C65.8149 47.5581 68.6765 50.4445 69.971 54.1717C70.6978 56.3307 70.6978 59.8307 69.971 61.9897C68.6765 65.7397 65.7695 68.6487 61.9995 69.9442C59.8647 70.6714 56.3672 70.6714 54.2324 69.9442C50.4851 68.6487 47.5554 65.717 46.2609 61.9897C45.5341 59.8307 45.5341 56.3307 46.2609 54.1717C47.7598 49.8308 51.5071 46.6036 56.072 45.7172C57.2984 45.49 60.7504 45.7854 62.0676 46.24Z" fill="url(#paint3_linear_186_98)"/>
<defs>
<linearGradient id="paint0_linear_186_98" x1="-0.46887" y1="59.1194" x2="116.514" y2="59.1194" gradientUnits="userSpaceOnUse">
<stop stop-color="#407FE7"/>
<stop offset="1" stop-color="#34A853"/>
</linearGradient>
<linearGradient id="paint1_linear_186_98" x1="-0.46887" y1="59.1194" x2="116.514" y2="59.1194" gradientUnits="userSpaceOnUse">
<stop stop-color="#407FE7"/>
<stop offset="1" stop-color="#34A853"/>
</linearGradient>
<linearGradient id="paint2_linear_186_98" x1="-0.46887" y1="59.1194" x2="116.514" y2="59.1194" gradientUnits="userSpaceOnUse">
<stop stop-color="#EA4335"/>
<stop offset="1" stop-color="#4285F4"/>
</linearGradient>
<linearGradient id="paint3_linear_186_98" x1="38.8162" y1="57.7184" x2="77.3533" y2="57.7184" gradientUnits="userSpaceOnUse">
<stop stop-color="#FBBE0D"/>
<stop offset="1" stop-color="#FBBE0D"/>
</linearGradient>
</defs>
</svg>
